<?xml version="1.0" encoding="UTF-8"?>
<svg width="100px" height="100px" viewBox="0 0 100 100" version="1.1" xmlns="http://www.w3.org/2000/svg" xmlns:xlink="http://www.w3.org/1999/xlink">
    <!-- Generator: Sketch 46.2 (44496) - http://www.bohemiancoding.com/sketch -->
    <title>img_24by7</title>
    <desc>Created with Sketch.</desc>
    <defs></defs>
    <g id="Assets" stroke="none" stroke-width="1" fill="none" fill-rule="evenodd" stroke-linecap="round" stroke-linejoin="round">
        <g id="img_24by7" transform="translate(3.000000, 2.000000)" stroke="#FF671B" stroke-width="2">
            <path d="M18.9522625,44.6553437 C16.7688458,42.1449687 2.58495,28.6787187 5.61624167,26.0436562 L11.0249083,21.3387812 C11.9143458,20.5629479 13.2803667,20.6599271 14.0562,21.5521354 L27.605575,37.1269896 C28.3814083,38.0191979 28.2872,39.3879896 27.3949917,40.1610521 L21.986325,44.8659271 C21.0941167,45.6417604 19.7280958,45.5475521 18.9522625,44.6553437 Z" id="Stroke-1"></path>
            <path d="M59.9547771,90.7476021 L46.4054021,75.1699771 C45.6295687,74.2777688 45.7237771,72.9117479 46.6187562,72.1331438 L52.0274229,67.4310396 C52.9196312,66.6552063 54.2828812,66.7494146 55.0587146,67.6416229 L68.6080896,83.2192479 C69.3839229,84.1114563 69.2897146,85.4774771 68.3975062,86.2533104 L62.9888396,90.9581854 C62.0938604,91.7312479 60.7306104,91.6370396 59.9547771,90.7476021 Z" id="Stroke-3"></path>
            <path d="M60.3848104,91.6323292 C55.2587687,95.9326625 26.9214562,97.3541 11.0501229,79.1053917 C-4.82121042,60.8594542 -0.304752083,32.067725 4.59685208,27.4875375" id="Stroke-5"></path>
            <path d="M18.3731583,46.4034625 C14.3138875,50.8783583 16.2035958,60.2659417 22.8757625,67.9383792 C29.5507,75.6108167 38.5863875,78.7861917 43.5822,75.3836083" id="Stroke-7"></path>
            <polyline id="Stroke-9" points="63.7375187 54.302 63.7375187 32.2932708 52.9783729 47.8099375 68.1071229 47.5882708"></polyline>
            <polyline id="Stroke-11" points="50.4192312 54.302 36.6232521 54.302 44.8941896 46.0310625"></polyline>
            <path d="M44.8936354,46.0299542 C50.6486562,40.8983708 49.0138646,35.6642667 45.4505729,33.7080583 C39.9504687,30.6906208 35.8856562,36.5869542 36.4952396,40.5104542" id="Stroke-13"></path>
            <path d="M47,10.4258542 L47,0.0158333333" id="Stroke-15"></path>
            <path d="M36.1535958,13.0262813 L32.593075,3.24523958" id="Stroke-17"></path>
            <path d="M25.9253417,19.5150188 L19.2337792,11.5405604" id="Stroke-19"></path>
            <path d="M72.9619,71.0325687 L79.6506917,79.0070271" id="Stroke-21"></path>
            <path d="M80.3517125,61.4346792 L89.3680042,66.641075" id="Stroke-23"></path>
            <path d="M84.0155854,49.8886167 L94.2676687,51.6952" id="Stroke-25"></path>
            <path d="M83.5093542,37.7850625 L93.7614375,35.9784792" id="Stroke-27"></path>
            <path d="M78.8931458,26.5853542 L87.9094375,21.3817292" id="Stroke-29"></path>
            <path d="M70.7269458,17.6397187 L77.4157375,9.66526042" id="Stroke-31"></path>
            <path d="M59.9924604,12.0276729 L63.5502104,2.24663125" id="Stroke-33"></path>
        </g>
    </g>
</svg>