<?xml version="1.0" encoding="UTF-8"?>
<svg width="100px" height="100px" viewBox="0 0 100 100" version="1.1" xmlns="http://www.w3.org/2000/svg" xmlns:xlink="http://www.w3.org/1999/xlink">
    <!-- Generator: Sketch 46.2 (44496) - http://www.bohemiancoding.com/sketch -->
    <title>img_choice</title>
    <desc>Created with Sketch.</desc>
    <defs></defs>
    <g id="Assets" stroke="none" stroke-width="1" fill="none" fill-rule="evenodd" stroke-linecap="round" stroke-linejoin="round">
        <g id="img_choice" transform="translate(10.000000, 2.000000)" stroke="#FF671B" stroke-width="2">
            <path d="M72.2380653,35.4004247 C72.710158,35.9006639 73.2542529,36.6575827 73.8703499,37.6711812 C76.5899546,43.0272021 78.1274819,49.0925562 78.1274819,55.5181187 C78.1274819,77.2109729 60.6415534,94.7919104 39.0748402,94.7919104 C17.5026162,94.7919104 0.0194431672,77.2109729 0.0194431672,55.5181187 C0.0194431672,33.8308062 17.5026162,16.2498687 39.0748402,16.2498687 C40.5951248,16.2498687 42.0969217,16.3371037 43.5730792,16.5064365" id="Stroke-1"></path>
            <path d="M0.036251261,55 L78.1084694,55" id="Stroke-3"></path>
            <path d="M52.3085965,35.4794521 C48.2470997,36.5545354 43.7640229,37.1530354 39.0522457,37.1530354 C27.5676334,37.1530354 17.4414457,33.6035979 11.4731947,28.2115563" id="Stroke-5"></path>
            <path d="M66.6737303,82.86375 C60.7109901,77.4495417 50.5655145,73.88625 39.0533479,73.88625 C27.5659802,73.88625 17.4397925,77.4356875 11.4742969,82.8277292" id="Stroke-7"></path>
            <path d="M38.8637747,94.3460833 C29.7515835,85.9809375 23.7530228,71.7471667 23.7530228,55.5959792 C23.7530228,39.4780417 29.7240292,25.2719792 38.8031553,16.8985208" id="Stroke-9"></path>
            <path d="M39.8593098,94.3460833 C48.971501,85.9809375 54.9700617,71.7471667 54.9700617,55.5959792 C54.9700617,48.5922441 53.8426358,41.9495031 51.8226741,35.9894386" id="Stroke-11"></path>
            <path d="M62.2493314,0.0161104167 C67.3055367,0.0161104167 71.8850534,2.07761042 75.1970745,5.40815208 C78.5090956,8.73869375 80.559132,13.3438187 80.559132,18.4282979 C80.559132,21.3847771 79.8647648,24.1833187 78.6330897,26.6576729 C76.2744457,31.3957979 64.3544762,39.6390271 62.2493314,48.5971312 C58.838115,39.9022562 48.224217,31.3957979 45.865573,26.6576729 C44.6338979,24.1833187 43.9395308,21.3847771 43.9395308,18.4282979 C43.9395308,8.25933958 52.1369208,0.0161104167 62.2493314,0.0161104167 Z" id="Stroke-13"></path>
            <path d="M62.2493314,9.10111875 C67.2614499,9.10111875 71.3229466,13.1853271 71.3229466,18.2227021 C71.3229466,23.2628479 67.2614499,27.3470563 62.2493314,27.3470563 C57.2399683,27.3470563 53.1784716,23.2628479 53.1784716,18.2227021 C53.1784716,13.1853271 57.2399683,9.10111875 62.2493314,9.10111875 Z" id="Stroke-15"></path>
        </g>
    </g>
</svg>