<?xml version="1.0" encoding="UTF-8"?>
<svg width="100px" height="100px" viewBox="0 0 100 100" version="1.1" xmlns="http://www.w3.org/2000/svg" xmlns:xlink="http://www.w3.org/1999/xlink">
    <!-- Generator: Sketch 46.2 (44496) - http://www.bohemiancoding.com/sketch -->
    <title>img_alignment</title>
    <desc>Created with Sketch.</desc>
    <defs></defs>
    <g id="Assets" stroke="none" stroke-width="1" fill="none" fill-rule="evenodd">
        <g id="Alignment" transform="translate(15.000000, 2.000000)" stroke="#FF671B" stroke-width="2">
            <path d="M35.3299735,85.5871926 L35.3299735,81.6370297 C35.3299735,79.9483351 29.6639735,75.0916097 28.2659735,72.9308706 C27.3979735,71.5878152 21.3299735,54.442133 21.3299735,54.442133 C21.3299735,52.5342043 26.2299735,50.0890535 29.4299735,54.442133 L34.6579735,62.443188 L37.3299735,59.9111336 L37.3299735,30.2849116 C37.3299735,28.1044217 39.1219735,26.3347487 41.3299735,26.3347487 C43.5379735,26.3347487 45.3299735,28.1044217 45.3299735,30.2849116 L45.3299735,55.9609707 L45.3299735,53.9858892 L45.3299735,44.1104819 L49.3299735,44.1104819 C50.5899735,44.1104819 52.5639735,44.8985394 53.3299735,46.0855634 L57.3299735,46.0855634 C59.2059735,46.0855634 61.3299735,47.8137596 61.3299735,50.0357263 L65.3299735,50.0357263 C67.2059735,50.0357263 69.3299735,51.7639226 69.3299735,53.9858892 L69.3299735,73.7367039 C69.3299735,77.7322937 65.3299735,80.9497014 65.3299735,83.6121112 L65.3299735,85.5871926" id="Stroke-1"></path>
            <path d="M53,46.0855634 L53,55.9609707" id="Stroke-3"></path>
            <path d="M60,50.0357263 L60,57.9360521" id="Stroke-5"></path>
            <polyline id="Stroke-7" points="69.3299735 91.512437 69.3299735 85.5871926 31.3299735 85.5871926 31.3299735 91.512437"></polyline>
            <path d="M33.3417735,45.0441029 L27.3297735,42.063705 L12.3317735,49.4426093 C11.3677735,49.9166289 10.2697735,49.0930199 10.4757735,48.0482018 L13.5657735,32.3759304 L1.22977349,20.2844817 C0.443773494,19.5141999 0.927773494,18.1908953 2.02977349,18.0921412 L18.8217735,16.6128052 L26.1457735,0.750925973 C26.6097735,-0.25044033 28.0497735,-0.25044033 28.5117735,0.750925973 L35.8377735,16.6128052 L52.6277735,18.0921412 C53.7277735,18.1908953 54.2137735,19.5141999 53.4277735,20.2844817 L49.3297735,24.2958721" id="Stroke-9" stroke-linejoin="round"></path>
        </g>
    </g>
</svg>