<?xml version="1.0" encoding="UTF-8"?>
<svg width="100px" height="100px" viewBox="0 0 100 100" version="1.1" xmlns="http://www.w3.org/2000/svg" xmlns:xlink="http://www.w3.org/1999/xlink">
    <!-- Generator: Sketch 46.2 (44496) - http://www.bohemiancoding.com/sketch -->
    <title>img_Satisfaction</title>
    <desc>Created with Sketch.</desc>
    <defs></defs>
    <g id="Assets" stroke="none" stroke-width="1" fill="none" fill-rule="evenodd">
        <g id="Satisfaction" transform="translate(6.000000, 5.000000)" stroke="#FF671B" stroke-width="2">
            <path d="M61.749775,83.4904381 L38.9329575,83.4904381 C31.8036314,83.4904381 28.9314506,76.778243 23.86641,76.778243" id="Stroke-1"></path>
            <path d="M88.397019,52.1668609 C88.397019,49.6967731 86.3800072,47.6920641 83.8947606,47.6920641 L72.6391147,47.6920641 C70.1538681,47.6920641 68.1368564,49.6967731 68.1368564,52.1668609 L68.1368564,56.6416576 C68.1368564,59.1117454 70.1538681,61.1164544 72.6391147,61.1164544 L83.8947606,61.1164544 C86.3800072,61.1164544 88.397019,59.1117454 88.397019,56.6416576 L88.397019,52.1668609 Z" id="Stroke-3"></path>
            <path d="M86.1458898,38.7424706 C86.1458898,36.2723828 84.128878,34.2676739 81.6436314,34.2676739 L70.3879855,34.2676739 C67.9027389,34.2676739 65.8857272,36.2723828 65.8857272,38.7424706 L65.8857272,43.2172674 C65.8857272,45.6873552 67.9027389,47.6920641 70.3879855,47.6920641 L81.6436314,47.6920641 C84.128878,47.6920641 86.1458898,45.6873552 86.1458898,43.2172674 L86.1458898,38.7424706 Z" id="Stroke-5"></path>
            <path d="M86.1458898,65.5912511 C86.1458898,63.1211633 84.128878,61.1164544 81.6436314,61.1164544 L70.3879855,61.1164544 C67.9027389,61.1164544 65.8857272,63.1211633 65.8857272,65.5912511 L65.8857272,70.0660479 C65.8857272,72.5361357 67.9027389,74.5408446 70.3879855,74.5408446 L81.6436314,74.5408446 C84.128878,74.5408446 86.1458898,72.5361357 86.1458898,70.0660479 L86.1458898,65.5912511 Z" id="Stroke-7"></path>
            <path d="M81.6436314,79.0156413 C81.6436314,76.5455535 79.6266197,74.5408446 77.1413731,74.5408446 L65.8857272,74.5408446 C63.4004806,74.5408446 61.3834688,76.5455535 61.3834688,79.0156413 L61.3834688,81.2530397 C61.3834688,83.7231275 63.4004806,85.7278365 65.8857272,85.7278365 L77.1413731,85.7278365 C79.6266197,85.7278365 81.6436314,83.7231275 81.6436314,81.2530397 L81.6436314,79.0156413 Z" id="Stroke-9"></path>
            <polygon id="Stroke-11" points="0.60298103 83.4904381 23.1142728 83.4904381 23.1142728 34.2676739 0.60298103 34.2676739"></polygon>
            <path d="M41.5805106,65.5912511 C52.253114,61.619869 58.9164564,51.6544966 59.1325648,40.979869 L59.1325648,29.7928771 C59.1325648,28.1685259 61.3836939,24.5797389 61.3836939,17.3081942 C61.3836939,9.94267875 60.0352676,7.22200232 56.8814356,3.16336167 C53.6915855,-0.937789547 47.8769189,0.234607201 47.8769189,4.19256492 L47.8769189,7.41889338 C47.8769189,16.2655666 44.6105304,22.2573194 38.6968141,28.871069 L29.8678855,38.7424706 L22.8934049,38.7424706" id="Stroke-13"></path>
            <path d="M11,40.979869 L11,49.9294625" id="Stroke-14"></path>
        </g>
    </g>
</svg>