<?xml version="1.0" encoding="UTF-8"?>
<svg width="100px" height="100px" viewBox="0 0 100 100" version="1.1" xmlns="http://www.w3.org/2000/svg" xmlns:xlink="http://www.w3.org/1999/xlink">
    <!-- Generator: Sketch 46.2 (44496) - http://www.bohemiancoding.com/sketch -->
    <title>img_savings</title>
    <desc>Created with Sketch.</desc>
    <defs></defs>
    <g id="Assets" stroke="none" stroke-width="1" fill="none" fill-rule="evenodd" stroke-linecap="round" stroke-linejoin="round">
        <g id="img_savings" transform="translate(5.000000, 3.000000)" stroke-width="2" stroke="#FF671B">
            <g id="Page-1">
                <path d="M67.2991984,12.7539276 L67.2991984,89.6768665 C67.2991984,91.4562964 65.8123026,92.9568188 64.0490321,92.9568188 L3.26318494,92.9568188 C1.49715074,92.9568188 0.010254955,91.4730309 0.010254955,89.6768665 L0.010254955,10.4559782 L0.010254955,89.6768665 L0.010254955,10.4559782 C0.010254955,8.66260294 1.51096947,7.17602593 3.26318494,7.17602593 L61.7212967,7.17602593 L61.7212967,7.17602593 C64.8018867,7.17602593 67.2991984,9.67333756 67.2991984,12.7539276 Z" id="Stroke-1" fill="#FFFFFF"></path>
                <g id="Group-17" transform="translate(9.100000, 23.250000)">
                    <path d="M0,23.2269519 C2.56862859,25.4941905 4.93733364,26.6278098 7.10611515,26.6278098 C11.8552096,26.6278098 15.2675939,23.8881295 15.2675939,19.9191054 C15.2675939,16.2661982 12.8754364,14.229 7.17647273,13.0699045 C1.33679394,11.8756848 0,10.2951 0,7.69591607 C0,5.06160804 2.39215758,2.98928571 6.01557273,2.98928571 C8.72433939,2.98928571 11.0461394,3.76201607 13.3679394,5.76409018" id="S-Copy"></path>
                    <path d="M6,2.98928571 L6,0" id="Line-4"></path>
                    <path d="M6,29.8928571 L6,26.9035714" id="Line-4-Copy"></path>
                </g>
                <path d="M32.9624081,79.736603 L37.5502278,75.1067384 L32.9624081,79.736603 Z" id="Path"></path>
                <path d="M82.5329707,21.7126852 L90.7357713,29.9934491 L48.1547243,72.9647287 C39.6672578,81.5327673 31.4589298,73.2520035 39.94916,64.6867539 L82.5329707,21.7126852 Z" id="Path" fill="#FFFFFF"></path>
                <polyline id="Path" points="75.7756098 28.428778 89.4008816 42.1789181 71.5552225 60.1881231"></polyline>
                <path d="M29.9504768,40.4036718 L55.0259516,40.4036718 M29.9504768,27.5348794 L55.0259516,27.5348794" id="Stroke-5"></path>
                <path d="M29.9504768,52 L42.2712601,52" id="Stroke-7"></path>
                <polygon id="Stroke-9" fill="#FFFFFF" points="18.8520988 12.6520959 48.4601183 12.6520959 48.4601183 0.706487395 18.8520988 0.706487395"></polygon>
            </g>
        </g>
    </g>
</svg>