<?xml version="1.0" encoding="UTF-8"?>
<svg width="100px" height="100px" viewBox="0 0 100 100" version="1.1" xmlns="http://www.w3.org/2000/svg" xmlns:xlink="http://www.w3.org/1999/xlink">
    <!-- Generator: Sketch 46.2 (44496) - http://www.bohemiancoding.com/sketch -->
    <title>img_tech</title>
    <desc>Created with Sketch.</desc>
    <defs></defs>
    <g id="Assets" stroke="none" stroke-width="1" fill="none" fill-rule="evenodd">
        <g id="img_tech" transform="translate(6.000000, 3.000000)" stroke="#FF671B" stroke-width="2">
            <path d="M80.5072717,71.9202827 C74.2057654,77.9577262 53.8484723,73.6767748 33.0587747,61.5806293 C10.8294861,48.6447689 -3.47677889,31.6724312 1.10829203,23.6712242 C5.69072633,15.6700172 27.4269682,19.669292 49.6588935,32.6051524 C66.6070452,42.4664872 78.9490331,54.6742404 81.8255784,63.4646731 M12.4615499,74.6201254 C6.87983903,74.8008235 2.80890775,73.4854474 1.10829203,70.5145575 C-3.47677889,62.5106932 10.8294861,45.5383555 33.0587747,32.6051524 C55.2906999,19.669292 77.0269418,15.6700172 81.6093761,23.6712242 C86.1944471,31.6724312 71.8881821,48.6447689 49.6588935,61.5806293 C39.90606,67.2566765 30.2481447,71.2134341 22.0904625,73.1878269 M32.5815477,7.32601524 C35.1285163,2.84310718 38.1368924,0.249557522 41.3588341,0.249557522 C50.5263393,0.249557522 57.9589528,21.2211701 57.9589528,47.0928909 C57.9589528,72.9646116 50.5263393,93.9362242 41.3588341,93.9362242 C32.1913289,93.9362242 24.7587153,72.9646116 24.7587153,47.0928909 C24.7587153,35.100381 26.3591397,24.1575147 28.9852068,15.8719739" id="Stroke-1" stroke-linecap="round" stroke-linejoin="round"></path>
            <path d="M41.3598887,39.3629968 C45.59429,39.3629968 49.0271609,42.8228346 49.0271609,47.0931566 C49.0271609,51.3634786 45.59429,54.820659 41.3598887,54.820659 C37.1254874,54.820659 33.68998,51.3634786 33.68998,47.0931566 C33.68998,42.8228346 37.1254874,39.3629968 41.3598887,39.3629968 Z M82.8100899,63.3028419 C85.2700504,63.3028419 87.2633302,65.3144373 87.2633302,67.793722 C87.2633302,70.2730066 85.2700504,72.2819447 82.8100899,72.2819447 C80.3474929,72.2819447 78.3542131,70.2730066 78.3542131,67.793722 C78.3542131,65.3144373 80.3474929,63.3028419 82.8100899,63.3028419 Z M17.3535226,69.932869 C19.813483,69.932869 21.8067628,71.9444644 21.8067628,74.423749 C21.8067628,76.9030337 19.813483,78.9119717 17.3535226,78.9119717 C14.8935622,78.9119717 12.8976457,76.9030337 12.8976457,74.423749 C12.8976457,71.9444644 14.8935622,69.932869 17.3535226,69.932869 Z M30.3362076,7.06054843 C32.796168,7.06054843 34.7920844,9.06948648 34.7920844,11.5487711 C34.7920844,14.0280558 32.796168,16.0396512 30.3362076,16.0396512 C27.8762472,16.0396512 25.8829673,14.0280558 25.8829673,11.5487711 C25.8829673,9.06948648 27.8762472,7.06054843 30.3362076,7.06054843 Z" id="Stroke-3"></path>
        </g>
    </g>
</svg>