<?xml version="1.0" encoding="UTF-8"?>
<svg width="100px" height="100px" viewBox="0 0 100 100" version="1.1" xmlns="http://www.w3.org/2000/svg" xmlns:xlink="http://www.w3.org/1999/xlink">
    <!-- Generator: Sketch 46.2 (44496) - http://www.bohemiancoding.com/sketch -->
    <title>img_visibility</title>
    <desc>Created with Sketch.</desc>
    <defs></defs>
    <g id="Assets" stroke="none" stroke-width="1" fill="none" fill-rule="evenodd" stroke-linecap="round" stroke-linejoin="round">
        <g id="img_visibility" transform="translate(4.000000, 3.000000)" stroke="#FF671B" stroke-width="2">
            <path d="M1.3220673,67.3714664 L12.4459253,24.4426127 C14.0298415,18.325567 18.5881563,13.0763666 26.1629205,13.0763666 C33.7376847,13.0763666 39.8687022,18.1710961 39.8827191,24.4426127 L39.9640175,71.1939178" id="Stroke-1"></path>
            <path d="M18.9691373,13.9883063 L20.735274,7.17754609 C21.6575898,3.6190994 24.1526084,0.361168724 28.5623434,0.361168724 C32.969275,0.361168724 36.5435994,3.32700906 36.5492061,6.97813826 L36.5604197,15.884085" id="Stroke-3"></path>
            <path d="M90.4993567,67.3714664 L79.3754987,24.4426127 C77.7943858,18.325567 73.236071,13.0763666 65.6613068,13.0763666 C58.0837393,13.0763666 51.9527218,18.1710961 51.9415082,24.4426127 L51.8574065,71.1939178" id="Stroke-5"></path>
            <path d="M72.8522867,13.9883063 L71.08615,7.17754609 C70.1638341,3.6190994 67.6688156,0.361168724 63.2590806,0.361168724 C58.8521489,0.361168724 55.280628,3.32700906 55.2750212,6.97813826 L55.2610042,15.884085" id="Stroke-7"></path>
            <path d="M18.2517493,53.380901 C29.0672342,52.3950961 38.6352099,60.3854519 39.6192003,71.2236886 C40.6031908,82.0619252 32.6275416,91.644735 21.8120567,92.6305399 C10.990965,93.6135362 1.42579279,85.625989 0.441802332,74.7877524 C-0.539384738,63.9495158 7.43346105,54.3667059 18.2517493,53.380901 Z" id="Stroke-9"></path>
            <path d="M18.9169942,60.7109642 C25.6927917,60.0930808 31.6892464,65.0979363 32.3031892,71.8890366" id="Stroke-11"></path>
            <path d="M70.1201012,53.380901 C80.9355861,52.3950961 90.5035617,60.3854519 91.4847488,71.2236886 C92.4687393,82.0619252 84.4958935,91.644735 73.6776052,92.6305399 C62.8593169,93.6135362 53.2913413,85.625989 52.3073508,74.7877524 C51.3261638,63.9495158 59.3018129,54.3667059 70.1201012,53.380901 Z" id="Stroke-13"></path>
            <path d="M70.7825427,60.7109642 C77.5611436,60.0930808 83.5547949,65.0979363 84.1687377,71.8890366" id="Stroke-15"></path>
            <path d="M45.9655183,60.9098103 C49.1782051,60.9098103 51.7825559,63.5189634 51.7825559,66.7375742 C51.7825559,69.9589936 49.1782051,72.5681467 45.9655183,72.5681467 C42.7528315,72.5681467 40.1484807,69.9589936 40.1484807,66.7375742 C40.1484807,63.5189634 42.7528315,60.9098103 45.9655183,60.9098103 Z" id="Stroke-17"></path>
            <path d="M40.1451166,34.53967 C40.1451166,31.3210592 42.7522708,28.7119061 45.9649576,28.7119061 C49.1776444,28.7119061 51.7819952,31.3210592 51.7819952,34.53967" id="Stroke-19"></path>
        </g>
    </g>
</svg>